<mxfile host="app.diagrams.net" modified="2023-06-12T12:39:44.271Z" agent="Mozilla/5.0 (Windows NT 10.0; Win64; x64) AppleWebKit/537.36 (KHTML, like Gecko) Chrome/114.0.0.0 Safari/537.36 Edg/114.0.1823.43" etag="_BJLY1pK4ChTv4NOyajX" version="21.3.7" type="device">
  <diagram name="Page-1" id="gU6zvJj3JTHgsnhgzKyy">
    <mxGraphModel dx="443" dy="-160" grid="0" gridSize="10" guides="1" tooltips="1" connect="1" arrows="1" fold="1" page="0" pageScale="1" pageWidth="850" pageHeight="1100" math="0" shadow="0">
      <root>
        <mxCell id="0" />
        <mxCell id="1" parent="0" />
        <mxCell id="JSz5gKZsfsMqaYt9RQUO-4" value="" style="shape=image;verticalLabelPosition=bottom;labelBackgroundColor=default;verticalAlign=top;aspect=fixed;imageAspect=0;image=data:image/jpeg,/9j/4AAQSkZJRgABAQEAkACQAAD/2wBDAAIBAQIBAQICAgICAgICAwUDAwMDAwYEBAMFBwYHBwcGBwcICQsJCAgKCAcHCg0KCgsMDAwMBwkODw0MDgsMDAz/2wBDAQICAgMDAwYDAwYMCAcIDAwMDAwMDAwMDAwMDAwMDAwMDAwMDAwMDAwMDAwMDAwMDAwMDAwMDAwMDAwMDAwMDAz/wAARCADOARYDASIAAhEBAxEB/8QAHwAAAQUBAQEBAQEAAAAAAAAAAAECAwQFBgcICQoL/8QAtRAAAgEDAwIEAwUFBAQAAAF9AQIDAAQRBRIhMUEGE1FhByJxFDKBkaEII0KxwRVS0fAkM2JyggkKFhcYGRolJicoKSo0NTY3ODk6Q0RFRkdISUpTVFVWV1hZWmNkZWZnaGlqc3R1dnd4eXqDhIWGh4iJipKTlJWWl5iZmqKjpKWmp6ipqrKztLW2t7i5usLDxMXGx8jJytLT1NXW19jZ2uHi4+Tl5ufo6erx8vP09fb3+Pn6/8QAHwEAAwEBAQEBAQEBAQAAAAAAAAECAwQFBgcICQoL/8QAtREAAgECBAQDBAcFBAQAAQJ3AAECAxEEBSExBhJBUQdhcRMiMoEIFEKRobHBCSMzUvAVYnLRChYkNOEl8RcYGRomJygpKjU2Nzg5OkNERUZHSElKU1RVVldYWVpjZGVmZ2hpanN0dXZ3eHl6goOEhYaHiImKkpOUlZaXmJmaoqOkpaanqKmqsrO0tba3uLm6wsPExcbHyMnK0tPU1dbX2Nna4uPk5ebn6Onq8vP09fb3+Pn6/9oADAMBAAIRAxEAPwD9/KKKKACmuMCnUhGaAIwfmNLSsu00lABRjNFFADG4akpzim0AFFFFADXGKbTyu6mHg0AFI3SloPNAELHkUjfeqRo/0ppXJoAZRSsu2koAKKKKAExTN1OZsGm0AW7O73/Keo71ZzWVjnNXrO53ja3Xt70AT0UrLtpKACmv0p1MZs0AJRRRQAUmM0tFAEe6ilZcCigC3RRRQAUUUUAIy7qaVwKfSN92gBlFGMUUAIy5WmHipSflFRkc0AJRRRQAU0pk06jNAEZGKKVzk0lACHpTKeelMxigBGXdTCMGpKYynNACUUUUAMfrSU5xk03FABRnBoooAu2t2JV2k81PmskKYm3A1pW0wnjHPIoAkprRnNOPFKTnH0oAiooxRQAUUUUANfpRQ/SigC1RRRQAUUUUAFFFFADZKbUmM1G/GaACkPShT8tLQBHRTnGBTaACkf7tLRQBHRT8UjjAoAbTX6U6jrQBHSn7lJRQAx/vUlPxTKACiimucCgBH+9SUUUAGaSKVreXjpmlo60AaVvOLiOndKyopzBJxnFacMonXI9KAFf7tMqSkxQAyiiigBr9KKd1ooAsUUUUAFFFFABRRRQAUhTdS0UARkbTRTimTSMu2gBAu+mMuBUinBprDIoAZRSM2KUHIoAKa/SnUjDcKAGUUEYNFADSnFNqQ8ioyMGgBQMg1GwwakBwKY4oAbSEZpaKAI2GDRTnXvTaACiiigBrfKtLZ3P2aX6nvQw3CmOuTQBrRv5q5WlB5rOs7owt7Vood43DvQAyilIxSUAFFFFAFiiiigAooooAKKKKACiiigAprinUj/doAZnmik/j/CloAR1zTOlSVGetABRRRQAxhzSU89KZQAU1lyadRQBGRikf7tPkpj/doAZRRRQAjDIpuw0+igCMriinP0ptABTCvNPpD0oAZgMtT2d2YDt7etQUjZ7UAarYyMHNFVbS42naep6VaoAKKKKALFFFFABRRRQAUUUUAFFFFABRRRQA1+lNp5GaQqMUANpW7fSkozmgCOinFeKbQAUx+tPpCM0AMopzrgU2gApj/ep9IVzQBC33qSnOOKbQAUUUUAR0U5lwKbigAooooAY/Wkp5XNMPWgBDyKtWdzuG1ulVqM0AalFV7a8DjB6iigDQooooAKKKKACiiigAooooAKKKKACg80UUAMZdopKewyKYRigAPIpjLtFOBzQ4yKAGUUu00lACMNwphGDUlNZcmgBtFBGKKAI5E4prR7TUjjNNfk0AR0UFcUUAFB5FFFADGXbSU5xmm0AFMZcU+kcZFADKKCMUUAMD4FFIRiigDoKKKKACiiigAooooAKKKKACiiigAooooAKa4yadRQBCnAp1K/WkoAQ9KZnFSdajdKACiiigBrjNNqSoz1oAKjxipKR/u0ARPyKb0qSmP1oASiiigAqNutSU10zQA3NFGNtFADH60lK/WkoAa4zRTqKANyiiigAooooAKKKKACiiigAooooAKKKKACiiigBMZpHGBTqQjNADKOtKwwaSgBrjFNp5XdTGGDQAUmKWigBj8Gkp5XNJsoAibhqbjNSMnzU1hg0AMcYFNqQLvpjLgUAJRmiigBMZplSU3ZQAx+lMqV0+Wo2XAoASiiigDcooooAKKKKACiiigAooooAKKKKACiiigAooooAKKKKAGsuTSFcU+mvyKAG01lyadiigBhXbSU5xmm4oAKKKKAGP96mMuTT3+9SUAMHytTWGRTmHzUnSgCMjFFOcZNN6UAFFGc0UAI/3ajYZFSNytM6UAM2UU+igDYopAciloAKKKKACiiigAooooAKKKKACiiigAooooAKKKKACiiigBD0plSU1xgUANpH+7QD8xpy/eoAiopzjim0ANKZNIw2mn01lyaAG0x+tSFcUmM0AR010yKkcYFNzQBEBilpzDim0AFMfrT6MZoAjooooA04ZcrUuc1TyRU8EmRQBLRRRQAUUUUAFFFFABRRRQAUUUUAFFFFABRRRQAUUUUAFIRmlooAYy7TSA4p7LuppTAoAaRmmOCKkpGGaAIx0paVl2ikoAQjNIVGKdTWbFADCM00pT6KAIytNdcCpHGaYV30AMopWXbSUAR4oqSigCxQGxRRQBNBNuqaqittNTRTbqAJaKKKACiiigAooooAKKKKACiiigAooooAKKKKACiiigApGGRS0UAM2GkqSo6AEcZFMIxUlIy7jQAymMvNSMu0Uh5oAjop2ymng0AKMYppXFLSqNxoAgkphOKnZKidOKAEooooA/9k=;" vertex="1" parent="1">
          <mxGeometry x="101.5999755859375" y="463" width="278" height="206" as="geometry" />
        </mxCell>
        <mxCell id="JSz5gKZsfsMqaYt9RQUO-2" value="" style="shape=image;verticalLabelPosition=bottom;labelBackgroundColor=default;verticalAlign=top;aspect=fixed;imageAspect=0;image=data:image/png,iVBORw0KGgoAAAANSUhEUgAAAbgAAAEtCAYAAAB6YXVDAAAAAXNSR0IArs4c6QAAAARnQU1BAACxjwv8YQUAAAAJcEhZcwAAEnQAABJ0Ad5mH3gAAAXISURBVHhe7dwhb15lGIDh92thorbzndoabINA4/gDkGymNXUYkNOTTZrg+BsLCWmCoUl/AYYKQjUJooGmE/vokte0gjo4353rMud5Xn9yn7zirNZ3BgDEbM0nAKQIHABJAgdAksABkCRwACQJHABJAgdAksABkCRwACQJHABJftUF8Ii/v/58TizaamvsnJ7NReAAHvXXl8/H+vZmbizV1t7+vcC5ogQgSeAASBI4AJIEDoAkgQMgSeAASBI4AJIEDoAkgQMgSeAASBI4AJIEDoAkgQMgSeAASBI4AJIEDoAkgQMgSeAASBI4AJIEDoAkgQMgSeAASBI4AJIEDoAkgQMgSeAASBI4AJIEDoAkgQMgSeAASBI4AJIEDoAkgQMgSeAASBI4AJIEDoAkgQMgSeAASBI4AJIEDoAkgQMgSeAASBI4AJIEDoAkgQMgSeAASBI4AJIEDoAkgQMgSeAASBI4AJIEDoAkgQMgabW+M2fgP/Lj5Tfjtz9/mhtL9sXz78bu8eFY397ME5Zqa29/7JyezU3g4H/xIXAXVydzY8mODs4FbkM8DJwrSgCSBA6AJIEDIEngAEgSOACSBA6AJIEDIEngAEgSOACSBA6AJIEDIEngAEgSOACSBA6AJIEDIEngAEgSOACSBA6AJIEDIEngAEgSOACSBA6AJIEDIEngAEgSOACSBA6AJIEDIEngAEgSOACSBA6AJIEDIEngAEgSOACSBA6AJIEDIEngAEgSOACSBA6AJIEDIEngAEgSOACSBA6AJIEDIEngAEgSOACSBA6AJIEDIEngAEgSOACSBA6AJIEDIEngAEgSOACSBA6AJIEDIEngAEgSOACSBA6AJIEDIGm1vjNnNtjl9fvx5pfbubF0X+2+HhdXJ3NjyY4Ozsfu8eFY397ME5Zqa29/7JyezU3gMj4E7sXb67mxZK+ePRkvnwrcphC4zfEwcK4oAUgSOACSBA6AJIEDIEngAEgSOACSBA6AJIEDIEngAEgSOACSBA6AJIEDIEngAEgSOACSBA6AJIEDIEngAEgSOACSBA6AJIEDIEngAEgSOACSBA6AJIEDIEngAEgSOACSBA6AJIEDIEngAEgSOACSBA6AJIEDIEngAEgSOACSBA6AJIEDIEngAEgSOACSBA6AJIEDIEngAEgSOACSBA6AJIEDIEngAEgSOACSBA6AJIEDIEngAEgSOACSBA6AJIEDIEngAEgSOACSBA6AJIEDIEngAEgSOACSBA6AJIEDIGm1vjPn+379dow/fpgLi/bJ9+Ny+7Px4u31PGDJXj17Ml4+fT0urk7mCUt2dHA+do8Px/r2Zp6wVFt7+2Pn9GxujwXudy/gRvj0Z4HbIAK3WQRuczwMnCtKAJIEDoAkgQMgSeAASBI4AJIEDoAkgQMgSeAASBI4AJIEDoAkgQMgSeAASBI4AJIEDoAkgQMgSeAASBI4AJIEDoAkgQMgSeAASBI4AJIEDoAkgQMgSeAASBI4AJIEDoAkgQMgSeAASBI4AJIEDoAkgQMgSeAASBI4AJIEDoAkgQMgSeAASBI4AJIEDoAkgQMgSeAASBI4AJIEDoAkgQMgSeAASBI4AJIEDoAkgQMgSeAASBI4AJIEDoAkgQMgSeAASBI4AJIEDoAkgQMgSeAASBI4AJIEDoAkgQMgSeAASBI4AJIEDoAkgQMgSeAASBI4AJIEDoAkgQMgSeAASBI4AJIEDoAkgQMgSeAASBI4AJIEDoAkgQMgSeAASBI4AJIEDoAkgQMgSeAASBI4AJIEDoAkgQMgSeAASBI4AJIEDoAkgQMgSeAASBI4AJIEDoAkgQMgSeAASBI4AJIEDoAkgQMgSeAASBI4AJIEDoAkgQMgSeAASBI4AJIEDoAkgQMgabW+M+f71u/nwCZ4t/atskm2x7s5sQm236/mxOJ99PEc/i1wALDBfPYDkCRwACQJHABJAgdAksABEDTGP/grkyQO7C08AAAAAElFTkSuQmCC;" vertex="1" parent="1">
          <mxGeometry x="130" y="472.26" width="234.97" height="160.74" as="geometry" />
        </mxCell>
        <mxCell id="JSz5gKZsfsMqaYt9RQUO-3" value="&lt;font style=&quot;font-size: 34px;&quot;&gt;Zayn Solutions&lt;/font&gt;" style="text;html=1;strokeColor=none;fillColor=none;align=center;verticalAlign=middle;whiteSpace=wrap;rounded=0;fontSize=65;" vertex="1" parent="1">
          <mxGeometry x="118" y="619" width="263" height="30" as="geometry" />
        </mxCell>
        <mxCell id="JSz5gKZsfsMqaYt9RQUO-5" value="" style="shape=image;verticalLabelPosition=bottom;labelBackgroundColor=default;verticalAlign=top;aspect=fixed;imageAspect=0;image=data:image/png,iVBORw0KGgoAAAANSUhEUgAAAbgAAAEtCAYAAAB6YXVDAAAAAXNSR0IArs4c6QAAAARnQU1BAACxjwv8YQUAAAAJcEhZcwAAEnQAABJ0Ad5mH3gAAAXISURBVHhe7dwhb15lGIDh92thorbzndoabINA4/gDkGymNXUYkNOTTZrg+BsLCWmCoUl/AYYKQjUJooGmE/vokte0gjo4353rMud5Xn9yn7zirNZ3BgDEbM0nAKQIHABJAgdAksABkCRwACQJHABJAgdAksABkCRwACQJHABJftUF8Ii/v/58TizaamvsnJ7NReAAHvXXl8/H+vZmbizV1t7+vcC5ogQgSeAASBI4AJIEDoAkgQMgSeAASBI4AJIEDoAkgQMgSeAASBI4AJIEDoAkgQMgSeAASBI4AJIEDoAkgQMgSeAASBI4AJIEDoAkgQMgSeAASBI4AJIEDoAkgQMgSeAASBI4AJIEDoAkgQMgSeAASBI4AJIEDoAkgQMgSeAASBI4AJIEDoAkgQMgSeAASBI4AJIEDoAkgQMgSeAASBI4AJIEDoAkgQMgSeAASBI4AJIEDoAkgQMgSeAASBI4AJIEDoAkgQMgabW+M2fgP/Lj5Tfjtz9/mhtL9sXz78bu8eFY397ME5Zqa29/7JyezU3g4H/xIXAXVydzY8mODs4FbkM8DJwrSgCSBA6AJIEDIEngAEgSOACSBA6AJIEDIEngAEgSOACSBA6AJIEDIEngAEgSOACSBA6AJIEDIEngAEgSOACSBA6AJIEDIEngAEgSOACSBA6AJIEDIEngAEgSOACSBA6AJIEDIEngAEgSOACSBA6AJIEDIEngAEgSOACSBA6AJIEDIEngAEgSOACSBA6AJIEDIEngAEgSOACSBA6AJIEDIEngAEgSOACSBA6AJIEDIEngAEgSOACSBA6AJIEDIEngAEgSOACSBA6AJIEDIEngAEgSOACSBA6AJIEDIGm1vjNnNtjl9fvx5pfbubF0X+2+HhdXJ3NjyY4Ozsfu8eFY397ME5Zqa29/7JyezU3gMj4E7sXb67mxZK+ePRkvnwrcphC4zfEwcK4oAUgSOACSBA6AJIEDIEngAEgSOACSBA6AJIEDIEngAEgSOACSBA6AJIEDIEngAEgSOACSBA6AJIEDIEngAEgSOACSBA6AJIEDIEngAEgSOACSBA6AJIEDIEngAEgSOACSBA6AJIEDIEngAEgSOACSBA6AJIEDIEngAEgSOACSBA6AJIEDIEngAEgSOACSBA6AJIEDIEngAEgSOACSBA6AJIEDIEngAEgSOACSBA6AJIEDIEngAEgSOACSBA6AJIEDIEngAEgSOACSBA6AJIEDIEngAEgSOACSBA6AJIEDIGm1vjPn+379dow/fpgLi/bJ9+Ny+7Px4u31PGDJXj17Ml4+fT0urk7mCUt2dHA+do8Px/r2Zp6wVFt7+2Pn9GxujwXudy/gRvj0Z4HbIAK3WQRuczwMnCtKAJIEDoAkgQMgSeAASBI4AJIEDoAkgQMgSeAASBI4AJIEDoAkgQMgSeAASBI4AJIEDoAkgQMgSeAASBI4AJIEDoAkgQMgSeAASBI4AJIEDoAkgQMgSeAASBI4AJIEDoAkgQMgSeAASBI4AJIEDoAkgQMgSeAASBI4AJIEDoAkgQMgSeAASBI4AJIEDoAkgQMgSeAASBI4AJIEDoAkgQMgSeAASBI4AJIEDoAkgQMgSeAASBI4AJIEDoAkgQMgSeAASBI4AJIEDoAkgQMgSeAASBI4AJIEDoAkgQMgSeAASBI4AJIEDoAkgQMgSeAASBI4AJIEDoAkgQMgSeAASBI4AJIEDoAkgQMgSeAASBI4AJIEDoAkgQMgSeAASBI4AJIEDoAkgQMgSeAASBI4AJIEDoAkgQMgSeAASBI4AJIEDoAkgQMgSeAASBI4AJIEDoAkgQMgSeAASBI4AJIEDoAkgQMgSeAASBI4AJIEDoAkgQMgSeAASBI4AJIEDoAkgQMgabW+M+f71u/nwCZ4t/atskm2x7s5sQm236/mxOJ99PEc/i1wALDBfPYDkCRwACQJHABJAgdAksABEDTGP/grkyQO7C08AAAAAElFTkSuQmCC;" vertex="1" parent="1">
          <mxGeometry x="450" y="472.26" width="234.97" height="160.74" as="geometry" />
        </mxCell>
        <mxCell id="JSz5gKZsfsMqaYt9RQUO-6" value="&lt;font style=&quot;font-size: 34px;&quot;&gt;Zayn Solutions&lt;/font&gt;" style="text;html=1;strokeColor=none;fillColor=none;align=center;verticalAlign=middle;whiteSpace=wrap;rounded=0;fontSize=65;" vertex="1" parent="1">
          <mxGeometry x="438" y="619" width="263" height="30" as="geometry" />
        </mxCell>
      </root>
    </mxGraphModel>
  </diagram>
</mxfile>
